<svg xmlns="http://www.w3.org/2000/svg" viewBox="0 0 100 100" width="100" height="100">
  <defs>
    <linearGradient id="churchGradient" x1="0%" y1="0%" x2="100%" y2="100%">
      <stop offset="0%" style="stop-color:#4f46e5;stop-opacity:1" />
      <stop offset="50%" style="stop-color:#7c3aed;stop-opacity:1" />
      <stop offset="100%" style="stop-color:#2563eb;stop-opacity:1" />
    </linearGradient>
    <filter id="shadow" x="-20%" y="-20%" width="140%" height="140%">
      <feDropShadow dx="2" dy="2" stdDeviation="3" flood-opacity="0.2"/>
    </filter>
  </defs>
  
  <!-- Church base -->
  <rect x="25" y="55" width="50" height="35" fill="url(#churchGradient)" filter="url(#shadow)" rx="2"/>
  
  <!-- Church tower -->
  <rect x="40" y="35" width="20" height="25" fill="url(#churchGradient)" rx="1"/>
  
  <!-- Church roof -->
  <polygon points="20,55 50,25 80,55" fill="url(#churchGradient)" filter="url(#shadow)"/>
  
  <!-- Tower roof -->
  <polygon points="38,35 50,20 62,35" fill="url(#churchGradient)"/>
  
  <!-- Cross -->
  <rect x="49" y="12" width="2" height="12" fill="#ffffff"/>
  <rect x="46" y="17" width="8" height="2" fill="#ffffff"/>
  
  <!-- Door -->
  <rect x="45" y="70" width="10" height="15" fill="#ffffff" rx="5" ry="5" opacity="0.9"/>
  
  <!-- Windows -->
  <rect x="30" y="65" width="6" height="8" fill="#ffffff" opacity="0.8" rx="3"/>
  <rect x="64" y="65" width="6" height="8" fill="#ffffff" opacity="0.8" rx="3"/>
  
  <!-- Tower window -->
  <rect x="47" y="42" width="6" height="6" fill="#ffffff" opacity="0.8" rx="3"/>
</svg>